<?xml version="1.0" standalone="no"?>
<!DOCTYPE svg PUBLIC "-//W3C//DTD SVG 20010904//EN"
 "http://www.w3.org/TR/2001/REC-SVG-20010904/DTD/svg10.dtd">
<svg version="1.0" xmlns="http://www.w3.org/2000/svg"
 width="400.000000pt" height="400.000000pt" viewBox="0 0 400.000000 400.000000"
 preserveAspectRatio="xMidYMid meet">
<metadata>
Created by potrace 1.11, written by Peter Selinger 2001-2013
</metadata>
<g transform="translate(0.000000,400.000000) scale(0.100000,-0.100000)"
fill="#000000" stroke="none">
<path d="M158 3835 c-7 -16 -19 -25 -33 -25 -36 0 -77 -38 -73 -68 4 -32 28
-47 62 -38 20 5 32 19 46 51 22 52 45 61 35 15 -6 -28 -5 -30 24 -30 31 0 42
14 19 23 -10 3 -9 13 5 41 9 20 17 41 17 46 0 14 -34 12 -48 -2 -9 -9 -12 -9
-12 0 0 22 -30 12 -42 -13z m-30 -75 c-12 -36 -27 -47 -38 -30 -15 23 3 45 47
59 1 1 -3 -13 -9 -29z"/>
<path d="M426 3847 c-28 -20 -18 -61 17 -65 19 -2 27 -9 27 -23 0 -26 24 -24
43 4 l16 22 0 -22 c1 -38 27 -26 60 27 17 28 35 50 41 50 5 0 10 5 10 10 0 22
-46 9 -62 -17 l-17 -28 -1 28 c0 33 -22 36 -43 6 l-15 -21 -7 21 c-7 24 -42
28 -69 8z m44 -28 c0 -5 -7 -9 -15 -9 -9 0 -12 6 -9 15 6 15 24 11 24 -6z"/>
<path d="M265 3799 c-5 -14 -3 -25 4 -27 6 -2 11 -10 11 -18 0 -9 11 -14 30
-14 17 0 30 5 30 10 0 6 -7 10 -15 10 -20 0 -19 17 2 29 22 12 17 17 -24 25
-27 6 -32 4 -38 -15z"/>
<path d="M630 3784 c-6 -14 -8 -30 -4 -35 7 -12 84 -12 84 1 0 6 -5 10 -10 10
-7 0 -7 6 0 19 14 26 13 31 -5 31 -9 0 -20 -10 -26 -22 l-10 -23 5 23 c6 31
-22 29 -34 -4z"/>
<path d="M2040 3137 c0 -7 -9 -20 -20 -30 -27 -22 -25 -43 4 -68 22 -19 25
-29 23 -78 l-3 -56 -34 3 c-19 1 -47 5 -62 8 -25 5 -27 3 -30 -33 -3 -33 -6
-38 -25 -36 -13 2 -23 0 -23 -3 0 -16 23 -44 35 -44 18 0 18 0 0 -43 -13 -31
-20 -36 -52 -39 -29 -3 -34 -6 -21 -12 22 -10 188 12 188 25 0 5 -10 9 -22 9
-17 0 -19 3 -10 12 7 7 12 37 12 68 l0 55 68 0 67 0 -10 -33 c-5 -19 -29 -54
-52 -79 -24 -25 -40 -49 -37 -54 8 -14 24 -11 19 4 -7 16 23 34 70 43 l38 7
-6 -32 c-5 -21 -3 -31 6 -31 8 0 11 14 9 42 -2 24 -5 66 -7 93 -2 28 -4 54 -4
58 -1 4 -8 7 -17 5 -10 -2 -19 3 -21 10 -3 6 2 12 10 12 9 0 18 13 22 29 7 33
-3 81 -16 81 -6 0 -5 10 2 21 9 17 8 23 -2 30 -28 18 -62 -1 -52 -27 7 -20
-15 -17 -42 4 -20 16 -21 20 -9 36 8 12 21 17 34 13 24 -6 26 6 4 27 -19 19
-34 21 -34 3z m-75 -376 c-5 -22 -12 -31 -26 -31 -24 0 -24 4 3 40 26 35 32
33 23 -9z"/>
<path d="M1901 3108 c-18 -23 -22 -36 -17 -62 4 -19 13 -37 22 -40 11 -4 12
-10 5 -25 -8 -14 -7 -22 4 -31 11 -9 15 -10 15 -1 0 7 4 10 8 7 10 -6 37 63
28 71 -3 4 -1 12 5 20 9 10 8 13 -4 13 -20 0 -39 33 -31 53 10 28 -11 25 -35
-5z"/>
<path d="M1793 3100 c-3 -10 -13 -22 -24 -25 -27 -9 -34 -39 -34 -168 0 -98 2
-117 15 -115 9 2 18 21 22 48 13 76 22 79 28 10 4 -47 9 -66 20 -68 12 -2 15
14 16 92 0 60 5 101 13 110 12 15 10 38 -9 81 -4 11 -11 28 -14 38 -7 23 -27
22 -33 -3z"/>
<path d="M2230 3094 c0 -9 -6 -22 -14 -28 -16 -13 -30 -132 -16 -141 15 -9 12
-56 -4 -87 -14 -26 -13 -28 5 -28 20 0 22 4 34 55 7 30 7 29 23 -20 19 -60 21
-63 31 -47 4 7 4 38 -1 68 -11 69 -5 191 10 206 6 6 8 17 5 24 -8 22 -33 17
-43 -8 l-9 -23 0 23 c-1 25 -21 31 -21 6z"/>
<path d="M1634 3065 c-4 -9 -4 -18 -1 -21 8 -9 -31 -44 -49 -44 -12 0 -15 -7
-12 -30 6 -39 -34 -89 -55 -69 -7 8 -19 29 -25 47 -11 31 -9 35 16 59 l27 25
-30 -22 c-19 -14 -37 -19 -52 -15 -21 5 -23 3 -18 -18 6 -23 -7 -35 -55 -50
-9 -3 -5 -6 9 -6 14 -1 32 6 42 15 11 10 23 13 31 7 18 -11 19 -43 2 -43 -8 0
-14 -3 -14 -8 0 -11 82 -34 89 -24 3 5 14 11 24 15 13 5 20 0 27 -18 9 -25 50
-71 50 -57 0 4 -4 12 -9 17 -5 6 -14 27 -19 47 l-10 37 34 -3 c29 -2 35 1 44
27 15 44 13 94 -5 101 -8 3 -15 12 -15 20 0 22 -19 30 -26 11z"/>
<path d="M2323 3054 c-4 -12 8 -44 37 -92 11 -18 18 -39 14 -45 -3 -7 1 -3 10
7 13 16 16 17 21 4 4 -9 5 -32 3 -53 -3 -39 16 -62 20 -25 6 46 5 86 -2 103
-12 26 7 20 24 -7 14 -22 17 -23 34 -10 17 12 18 14 3 14 -9 0 -17 4 -17 8 0
15 -41 53 -51 47 -5 -4 -9 7 -9 24 0 20 6 31 18 34 9 3 -9 4 -42 3 -32 0 -60
-6 -63 -12z"/>
<path d="M2535 2978 c-5 -18 -7 -46 -6 -63 1 -22 -1 -26 -8 -15 -5 8 -7 18 -5
22 8 13 -21 9 -41 -6 -19 -14 -19 -14 0 -49 33 -63 48 -77 73 -71 12 4 22 14
22 24 0 12 11 20 32 24 39 8 51 -3 42 -38 -5 -21 -11 -26 -25 -23 -28 7 -23
-5 14 -34 58 -46 59 -46 56 2 -5 88 0 129 16 129 19 0 79 30 72 36 -2 2 -17
-2 -33 -11 -37 -19 -80 -19 -88 0 -8 23 -29 18 -23 -5 6 -22 -17 -40 -51 -40
-16 0 -19 7 -18 39 0 22 4 34 8 28 12 -19 10 15 -3 52 -14 40 -24 39 -34 -1z"/>
<path d="M2321 2958 c-1 -10 -5 -18 -10 -18 -14 0 -22 -31 -12 -44 5 -6 13
-35 17 -64 3 -28 9 -52 13 -52 6 0 8 23 11 108 0 18 6 32 13 32 8 1 6 5 -4 13
-9 7 -18 19 -22 27 -4 12 -6 11 -6 -2z"/>
<path d="M1340 2901 c0 -11 -5 -23 -10 -26 -11 -7 -6 -177 5 -207 11 -28 25
-21 25 12 0 21 5 30 16 30 8 0 13 4 9 9 -3 5 4 16 16 25 l22 15 -23 28 c-17
22 -19 29 -7 31 12 2 37 41 37 57 0 15 -22 1 -30 -17 -7 -18 -9 -19 -9 -5 -1
9 -5 17 -10 17 -5 0 -11 10 -13 22 -4 28 -28 36 -28 9z"/>
<path d="M2837 2833 c4 -10 2 -14 -4 -10 -16 10 -20 -10 -15 -78 3 -42 7 -54
12 -40 7 19 9 18 19 -7 15 -38 22 -35 10 4 -5 18 -9 59 -9 90 0 32 -4 58 -10
58 -5 0 -6 -7 -3 -17z"/>
<path d="M1202 2831 c-9 -5 -13 -24 -11 -55 4 -58 -13 -79 -33 -39 -16 34 -42
37 -46 5 -2 -12 -12 -27 -23 -32 -10 -6 -19 -16 -19 -22 0 -6 8 -4 18 5 29 26
45 22 38 -10 -3 -16 -8 -53 -10 -83 -2 -30 -10 -76 -16 -102 -10 -39 -16 -48
-34 -48 -18 0 -24 -9 -34 -47 -12 -48 -11 -167 1 -180 4 -3 7 -17 7 -29 0 -30
14 -38 41 -24 15 9 20 19 16 36 -2 14 0 27 5 30 5 3 6 58 3 124 l-6 119 28 15
c15 8 22 15 16 16 -15 0 -17 35 -4 76 5 16 12 42 16 58 5 22 9 26 18 17 17
-17 29 -13 22 8 -9 28 16 32 65 10 60 -27 71 -19 20 15 -23 15 -39 30 -36 33
3 3 12 0 21 -7 28 -23 29 0 1 29 -15 15 -26 34 -24 42 2 8 -4 13 -14 13 -10
-1 -18 4 -18 11 0 8 8 16 18 18 12 3 13 5 2 6 -8 0 -21 -3 -28 -8z"/>
<path d="M2389 2813 c12 -18 26 -35 31 -38 6 -4 10 -20 10 -36 0 -26 -3 -29
-23 -24 -15 4 -28 0 -37 -10 -8 -10 -25 -21 -38 -26 -14 -5 -22 -12 -19 -15 3
-3 14 -1 24 4 11 6 35 7 63 2 67 -13 66 -14 62 28 -3 31 -2 35 9 24 8 -7 13
-31 13 -53 -1 -30 2 -39 12 -35 8 3 14 -1 14 -9 0 -8 -9 -15 -19 -15 -30 0
-33 -15 -8 -37 15 -15 36 -21 71 -22 27 0 46 3 42 6 -3 4 1 14 10 24 17 19 11
39 -12 39 -8 0 -14 5 -14 10 0 6 7 10 15 10 18 0 18 5 5 31 -6 10 -18 19 -26
19 -11 0 -14 8 -12 28 2 21 -1 27 -17 27 -16 0 -19 -6 -17 -27 2 -22 -1 -28
-16 -28 -14 0 -22 11 -30 40 -6 24 -6 42 -1 46 12 7 1 24 -16 24 -7 0 -15 -8
-17 -17 -2 -13 -11 -9 -42 22 -36 36 -38 37 -17 8z"/>
<path d="M1670 2809 c14 -25 30 -33 42 -21 14 14 -3 37 -29 38 -19 1 -21 -2
-13 -17z"/>
<path d="M2725 2810 c3 -11 2 -20 -4 -20 -5 0 -10 -24 -10 -52 -1 -77 -3 -92
-13 -104 -4 -6 -6 -18 -2 -27 3 -8 1 -25 -6 -36 -9 -17 -8 -21 4 -21 10 0 18
14 22 38 3 20 13 48 21 60 15 24 15 24 33 4 12 -12 20 -38 22 -68 2 -26 8 -49
13 -51 12 -4 14 139 2 148 -5 4 -10 26 -12 50 -2 24 -4 47 -4 51 -1 4 -10 10
-21 13 -11 3 -20 13 -20 21 0 8 -7 14 -16 14 -11 0 -14 -6 -9 -20z"/>
<path d="M1490 2800 c-8 -5 -23 -11 -33 -14 -26 -8 -15 -31 15 -31 20 0 24 -3
20 -20 -3 -11 -10 -23 -16 -27 -7 -5 -5 -8 6 -8 9 0 20 9 23 20 7 22 20 26 30
10 3 -5 21 -10 38 -10 37 0 76 -19 42 -20 -18 -1 -18 -2 3 -10 12 -5 22 -18
22 -29 0 -11 4 -23 10 -26 6 -4 7 1 3 11 -4 12 -3 15 5 10 7 -4 12 -2 12 3 0
6 -4 11 -9 11 -15 0 -22 33 -9 42 7 4 34 8 61 8 35 0 47 -4 47 -15 0 -8 4 -15
8 -15 12 0 32 22 32 35 0 14 -78 35 -130 35 -24 0 -40 5 -40 12 0 6 -3 9 -6 6
-3 -3 -28 3 -57 13 -58 21 -56 21 -77 9z"/>
<path d="M2325 2764 c-27 -24 -53 -44 -57 -44 -8 0 -11 21 -8 58 1 14 -4 22
-14 22 -9 0 -16 -8 -16 -17 0 -9 -9 -26 -20 -38 -12 -13 -17 -28 -13 -43 8
-30 23 -28 17 3 -2 14 0 25 6 25 6 0 16 -11 22 -25 16 -35 43 -31 68 10 12 19
25 35 30 35 8 0 44 50 38 55 -2 2 -25 -17 -53 -41z"/>
<path d="M2901 2771 c-8 -5 -16 -32 -19 -61 -3 -33 -12 -60 -23 -71 -11 -11
-19 -33 -19 -50 0 -23 -31 -110 -45 -127 -1 -1 -25 2 -54 8 -49 9 -54 8 -72
-13 -10 -12 -18 -32 -19 -44 0 -21 5 -23 53 -25 28 -1 64 -2 80 -1 32 1 33 -2
6 -46 -18 -31 -19 -39 -9 -104 6 -38 9 -71 7 -73 -2 -2 -20 4 -40 14 -30 14
-35 20 -25 31 11 10 9 15 -7 27 -11 8 -20 20 -20 27 0 16 -20 15 -20 -1 0 -8
-8 -18 -18 -23 -10 -6 -17 -22 -17 -39 0 -23 -5 -30 -20 -30 -24 0 -26 -22 -4
-44 14 -15 28 -20 46 -17 10 1 20 -37 13 -49 -3 -5 -1 -10 4 -10 6 0 11 8 11
18 1 27 27 55 45 48 9 -3 24 3 36 15 11 11 23 18 27 15 11 -12 -14 -61 -38
-73 l-24 -12 28 -7 c22 -5 31 -3 38 11 15 26 28 0 28 -59 l0 -49 -21 27 c-11
14 -25 26 -30 26 -6 0 -20 11 -33 25 -36 38 -49 33 -41 -17 8 -45 24 -65 37
-45 5 8 8 4 8 -10 0 -12 4 -25 10 -28 6 -4 7 6 3 26 -8 41 14 36 36 -9 9 -17
19 -32 23 -32 4 0 10 21 13 48 15 115 24 124 39 40 7 -40 31 -52 40 -20 20 72
25 228 8 258 -8 14 -11 14 -26 -7 -9 -13 -16 -29 -16 -36 0 -7 -6 -13 -14 -13
-15 0 -25 -19 -28 -53 -1 -12 -4 16 -7 63 l-6 85 42 44 41 44 11 -39 c6 -21
11 -45 11 -52 0 -7 6 -20 14 -27 8 -8 24 -47 36 -87 25 -83 20 -115 -20 -135
-17 -9 -20 -13 -8 -13 9 0 22 -2 30 -5 7 -2 26 6 41 18 27 23 27 24 12 60 -8
20 -15 53 -15 74 0 21 -7 56 -15 78 -8 22 -14 72 -15 110 0 42 -8 92 -19 123
-10 29 -16 65 -13 80 3 15 7 21 10 14 2 -8 24 -43 47 -78 24 -35 46 -77 50
-92 7 -35 -9 -82 -29 -82 -8 0 -17 -4 -20 -8 -6 -10 30 -111 44 -126 11 -11
181 44 187 61 3 8 -4 37 -14 66 -17 43 -25 52 -45 52 -51 2 -101 57 -163 181
-34 66 -66 119 -76 121 -14 4 -15 9 -6 33 8 21 8 36 -1 54 -12 28 -19 31 -41
17z m-45 -308 c-11 -11 -17 4 -9 23 7 18 8 18 11 1 2 -10 1 -21 -2 -24z m274
-105 c0 -4 -4 -8 -9 -8 -5 0 -16 -3 -25 -6 -20 -8 -22 26 -4 44 10 10 15 9 25
-5 7 -9 13 -20 13 -25z m-473 -160 c-3 -8 -6 -5 -6 6 -1 11 2 17 5 13 3 -3 4
-12 1 -19z"/>
<path d="M1488 2673 c-10 -2 -18 -8 -18 -13 0 -4 -12 -11 -27 -15 l-28 -7 28
-16 c31 -19 36 -48 10 -56 -10 -4 -28 -22 -41 -41 -12 -19 -29 -35 -37 -35
-23 0 -18 -17 8 -24 34 -9 37 -8 47 19 5 14 22 31 37 37 50 21 63 38 63 84 0
44 -8 75 -19 73 -3 -1 -14 -3 -23 -6z"/>
<path d="M1540 2660 c0 -5 5 -12 10 -15 6 -3 11 -18 11 -33 1 -18 3 -21 6 -9
4 14 8 16 19 6 10 -8 14 -9 14 0 0 6 -7 14 -16 18 -8 3 -14 13 -11 22 3 11 -2
17 -14 18 -11 1 -19 -2 -19 -7z"/>
<path d="M1185 2627 c-17 -13 -17 -15 6 -38 21 -21 22 -24 6 -27 -24 -5 -37
-42 -37 -107 0 -30 -5 -57 -10 -60 -6 -4 -8 -11 -4 -16 4 -6 11 -6 20 2 12 9
14 6 14 -20 0 -20 5 -31 14 -31 11 0 9 -10 -9 -42 -14 -24 -25 -46 -25 -49 0
-3 12 -11 27 -18 18 -9 28 -9 33 -1 4 6 15 8 26 4 18 -7 18 -7 1 13 -18 21
-18 22 9 63 26 40 27 43 15 91 -8 31 -10 71 -6 108 5 48 4 59 -9 64 -10 4 -16
19 -16 42 0 39 -20 47 -55 22z m2 -159 c-3 -8 -6 -5 -6 6 -1 11 2 17 5 13 3
-3 4 -12 1 -19z m23 -214 c0 -8 -5 -12 -10 -9 -6 4 -8 11 -5 16 9 14 15 11 15
-7z"/>
<path d="M1315 2619 c-4 -6 -5 -13 -2 -15 3 -3 -3 -14 -14 -25 -17 -17 -18
-27 -12 -72 4 -29 8 -71 8 -93 0 -30 3 -40 12 -37 7 3 10 9 7 14 -3 5 -2 24 2
42 l7 32 13 -39 c8 -21 11 -42 8 -47 -3 -5 0 -9 7 -9 11 0 11 13 -7 107 -4 23
-1 37 10 48 20 21 20 27 -2 51 -10 10 -16 27 -14 37 4 19 -13 23 -23 6z"/>
<path d="M1080 2534 c0 -8 5 -12 10 -9 6 3 10 10 10 16 0 5 -4 9 -10 9 -5 0
-10 -7 -10 -16z"/>
<path d="M941 2531 c-8 -5 -12 -18 -8 -30 4 -16 -1 -26 -18 -37 -19 -12 -42
-44 -32 -44 2 0 18 11 37 25 19 14 38 25 42 25 13 0 9 -35 -7 -56 -9 -12 -14
-42 -15 -80 0 -33 -3 -64 -7 -67 -6 -7 -27 23 -39 56 -9 24 -19 21 -39 -10
-16 -24 -19 -25 -30 -9 -8 10 -16 13 -19 7 -7 -10 19 -41 34 -41 5 0 8 -23 6
-50 -3 -46 -2 -50 15 -45 13 4 19 1 19 -9 0 -9 -9 -16 -20 -16 -11 0 -19 -3
-18 -7 4 -22 -24 -63 -47 -69 -30 -7 -33 -29 -5 -44 11 -6 20 -16 20 -23 0 -7
11 -28 25 -47 27 -37 30 -33 16 18 -10 35 -1 42 20 15 18 -20 18 -73 1 -73 -7
0 -17 -11 -22 -25 -5 -14 -12 -25 -14 -25 -14 0 -36 35 -36 58 -1 21 -3 24
-10 11 -15 -26 -4 -71 24 -95 29 -26 33 -50 12 -80 -8 -12 -20 -41 -26 -66
-10 -38 -9 -51 5 -77 9 -18 22 -34 29 -37 8 -3 16 -18 20 -35 8 -40 29 -37 42
7 10 32 10 36 -10 44 -12 4 -28 19 -35 33 -12 23 -11 28 9 54 12 15 28 43 35
61 8 17 21 32 29 32 8 0 16 4 18 10 2 5 12 7 24 4 16 -4 19 -12 16 -34 -3 -19
3 -35 17 -49 40 -40 70 -23 75 42 l3 47 -33 0 c-27 0 -34 4 -34 19 0 10 7 21
15 25 14 5 22 36 9 36 -16 0 -44 -23 -44 -36 0 -8 -4 -12 -10 -9 -5 3 -10 14
-10 24 0 10 -9 26 -20 36 -13 12 -20 31 -20 57 0 22 -5 41 -13 44 -13 5 -19
124 -6 124 14 0 27 -27 33 -68 3 -24 8 -47 11 -52 3 -5 1 -11 -4 -15 -16 -9
-2 -31 22 -32 12 -1 26 -8 32 -16 8 -11 16 -12 35 -4 18 7 21 11 10 15 -22 7
-28 21 -25 51 2 14 -3 38 -11 53 -8 15 -14 34 -14 42 0 24 62 -6 82 -41 18
-30 16 -40 -19 -123 -9 -20 -8 -28 5 -37 9 -7 23 -13 33 -13 20 0 33 -25 30
-62 -3 -38 18 -46 25 -8 6 27 19 34 19 9 0 -18 20 -10 23 9 2 12 -9 30 -27 45
-22 18 -31 34 -31 56 0 17 5 31 10 31 6 0 10 -9 10 -21 0 -12 5 -19 13 -16 8
2 12 25 12 63 0 37 6 68 16 84 27 41 31 85 9 105 -17 16 -19 15 -30 -6 -8 -14
-10 -42 -6 -80 4 -34 3 -60 -3 -63 -5 -4 -11 6 -13 21 -2 23 -8 28 -29 28 -24
1 -78 47 -79 68 0 4 -5 7 -11 7 -6 0 -9 -7 -5 -15 3 -8 2 -15 -2 -15 -14 0
-31 22 -26 34 3 7 -7 24 -22 39 -22 23 -25 32 -20 64 4 21 11 49 15 63 5 14
15 51 21 82 12 51 11 62 -5 98 -18 41 -29 47 -54 31z m21 -344 c32 -9 4 -37
-36 -37 -27 0 -32 4 -31 23 2 29 14 49 26 42 5 -4 10 4 11 17 1 16 2 13 5 -8
3 -22 11 -34 25 -37z m-72 -93 c0 -14 -4 -22 -10 -19 -5 3 -10 17 -10 31 0 14
4 22 10 19 6 -3 10 -17 10 -31z m108 -96 c6 -21 7 -38 4 -38 -21 1 -32 20 -30
53 3 42 12 37 26 -15z"/>
<path d="M1020 2532 c0 -5 7 -13 16 -16 10 -4 14 -1 12 6 -5 15 -28 23 -28 10z"/>
<path d="M2602 2511 c-18 -3 -33 -9 -32 -13 0 -5 0 -12 0 -18 0 -5 11 -10 24
-10 14 0 28 -4 31 -10 10 -17 25 -11 25 10 0 11 -5 20 -11 20 -6 0 -9 7 -5 15
3 8 4 14 3 14 -1 -1 -17 -4 -35 -8z"/>
<path d="M2550 2250 c-19 -11 -46 -19 -60 -20 -33 0 -54 -15 -45 -30 6 -9 9
-9 15 0 4 7 31 14 59 16 28 2 60 8 71 14 14 8 20 8 20 0 0 -7 6 -5 15 4 39 38
-14 50 -75 16z"/>
<path d="M3203 2163 l2 -48 -32 3 c-29 3 -34 -1 -47 -32 -10 -25 -21 -36 -36
-36 -12 0 -19 -4 -16 -9 4 -5 0 -12 -6 -14 -10 -4 -10 -6 0 -6 7 -1 52 14 100
33 48 18 95 36 105 39 16 6 16 9 2 44 -35 84 -74 98 -72 26z m58 -56 c-8 -8
-11 -3 -11 19 1 25 2 27 11 11 8 -14 8 -22 0 -30z m-91 -11 c0 -3 -4 -8 -10
-11 -5 -3 -10 -1 -10 4 0 6 5 11 10 11 6 0 10 -2 10 -4z"/>
<path d="M2495 2190 c-3 -5 -4 -18 -1 -28 3 -9 -5 -30 -19 -46 l-24 -29 -8 34
c-7 24 -16 35 -31 37 -17 3 -22 -2 -22 -20 0 -13 -4 -28 -9 -33 -4 -6 -5 -59
-1 -120 4 -60 8 -87 8 -58 2 44 5 51 18 46 13 -5 15 -15 10 -50 -5 -41 -5 -43
20 -43 21 0 25 4 21 20 -3 11 -1 20 5 20 6 0 8 17 6 39 -2 22 0 37 4 35 5 -3
8 -18 8 -34 0 -16 5 -41 11 -57 7 -19 7 -29 0 -31 -6 -2 -11 -10 -11 -18 0 -9
4 -13 9 -10 5 4 11 0 14 -6 11 -32 36 46 37 114 0 21 9 52 20 70 23 38 19 94
-9 116 -9 7 -16 23 -16 35 0 23 -28 36 -40 17z m-15 -136 c0 -8 -4 -12 -10 -9
-5 3 -10 10 -10 16 0 5 5 9 10 9 6 0 10 -7 10 -16z"/>
<path d="M2267 2154 c-3 -3 -3 -12 0 -20 3 -9 -2 -14 -15 -14 -12 0 -27 -8
-34 -18 -28 -39 -183 -91 -223 -76 -9 4 -23 -1 -33 -9 -9 -8 -30 -19 -47 -23
-16 -4 -36 -11 -43 -17 -9 -7 -16 -7 -24 1 -7 7 -18 12 -25 12 -10 0 -9 -7 4
-27 22 -35 33 -43 60 -43 14 0 21 5 17 13 -2 7 8 17 25 23 l29 11 -15 -35 c-8
-19 -12 -44 -9 -56 6 -26 -3 -66 -16 -66 -5 0 -7 12 -6 28 2 21 -2 28 -19 30
-13 2 -36 23 -55 48 -37 52 -49 44 -20 -13 35 -69 35 -78 2 -131 -36 -59 -37
-69 -7 -83 34 -15 50 -45 37 -69 -7 -12 -7 -26 -2 -36 7 -13 11 -10 22 15 12
31 35 35 23 4 -4 -11 -2 -14 8 -11 20 7 23 42 4 58 -8 7 -15 19 -15 27 0 8 -4
11 -10 8 -12 -7 -12 22 0 50 9 20 15 7 11 -23 -2 -10 2 -11 18 -2 16 8 21 21
21 50 0 43 15 90 28 90 19 0 80 -68 86 -96 8 -32 62 -101 72 -91 3 3 -1 20
-10 38 -18 36 -21 79 -6 79 6 0 22 -12 35 -26 22 -23 26 -25 40 -11 8 9 12 23
9 31 -3 9 -1 23 5 30 7 8 9 25 5 41 -4 18 -2 30 6 35 10 6 10 11 1 21 -6 8
-18 23 -26 34 -13 18 -14 16 -15 -29 0 -46 -1 -48 -15 -30 -8 10 -15 33 -15
51 0 36 -11 47 -40 38 -13 -4 -20 -15 -20 -30 0 -17 -9 -29 -30 -40 -48 -25
-61 -20 -48 15 8 25 7 34 -6 49 -9 10 -16 25 -16 33 0 13 14 15 85 15 47 -1
85 -5 85 -9 0 -13 45 -9 66 7 25 19 31 19 37 -5 8 -30 82 -29 98 1 13 25 -5
69 -28 69 -8 0 -11 5 -8 10 3 6 15 10 25 10 34 0 31 19 -7 44 -40 27 -46 30
-56 20z m58 -34 c3 -5 -1 -10 -9 -10 -9 0 -16 5 -16 10 0 6 4 10 9 10 6 0 13
-4 16 -10z m-165 -312 c0 -6 -7 -5 -15 2 -8 7 -15 17 -15 22 0 6 7 5 15 -2 8
-7 15 -17 15 -22z"/>
<path d="M2634 2017 c-3 -9 -16 -18 -30 -21 -29 -8 -53 -51 -49 -89 4 -35 2
-33 42 -42 29 -6 33 -4 39 19 5 23 12 25 62 28 l56 3 -43 28 c-35 23 -42 33
-39 55 2 19 -2 28 -15 30 -9 2 -20 -3 -23 -11z"/>
<path d="M1756 1934 c-3 -8 1 -22 9 -30 8 -9 15 -21 15 -28 0 -7 6 -21 14 -31
13 -18 14 -16 10 15 -5 41 -23 90 -34 90 -4 0 -11 -7 -14 -16z"/>
<path d="M1684 1927 c-7 -8 -7 -25 0 -54 7 -32 6 -47 -2 -55 -9 -9 -15 -5 -24
19 -14 38 -48 63 -48 34 0 -31 31 -96 39 -82 4 6 15 9 24 5 13 -5 20 2 28 25
9 26 14 29 25 20 26 -22 26 -2 -1 27 -15 17 -23 34 -20 45 7 21 -6 31 -21 16z"/>
<path d="M2259 1928 c-1 -2 -2 -14 -4 -28 -1 -14 -5 -36 -9 -50 l-7 -25 14 24
c19 31 25 18 23 -49 l-1 -55 -45 -17 c-71 -27 -26 -21 58 8 82 28 143 61 90
49 -23 -6 -29 -3 -40 20 -10 22 -9 28 3 37 11 8 10 9 -4 4 -11 -4 -17 -1 -15
7 4 18 -57 90 -63 75z m56 -58 c3 -5 2 -10 -4 -10 -5 0 -13 5 -16 10 -3 6 -2
10 4 10 5 0 13 -4 16 -10z m5 -54 c0 -7 7 -19 15 -26 13 -11 13 -15 3 -21 -36
-23 -67 8 -46 45 11 20 28 21 28 2z"/>
<path d="M1470 1859 c-8 -15 -8 -29 -1 -51 6 -17 11 -46 11 -64 0 -27 4 -34
20 -34 11 0 20 -4 20 -10 0 -20 19 -10 23 13 3 15 5 12 6 -11 1 -41 17 -72 36
-72 18 0 18 1 0 36 -37 72 -5 94 47 33 41 -48 53 -89 19 -67 -15 9 -24 7 -49
-13 -39 -31 -40 -42 -2 -34 17 4 30 3 30 -2 -1 -16 -81 -63 -107 -63 -25 0
-26 0 -8 -20 22 -24 58 -26 76 -4 10 12 24 15 55 10 27 -3 48 -1 60 8 16 12
17 17 4 57 -7 24 -14 67 -14 96 -1 52 -1 52 21 38 32 -21 41 -19 48 15 4 17
10 30 14 30 9 0 34 51 28 56 -2 2 -18 -16 -36 -41 -34 -47 -51 -51 -51 -9 0
35 -26 30 -34 -8 l-6 -32 -28 27 c-16 15 -34 27 -42 27 -15 0 -90 76 -90 90 0
7 -24 20 -35 20 -3 0 -9 -9 -15 -21z"/>
<path d="M1958 1785 c-9 -20 -6 -33 17 -77 15 -29 23 -54 19 -55 -23 -8 -38
-23 -31 -30 11 -10 120 30 115 42 -1 6 -11 10 -21 9 -17 -1 -33 38 -39 95 -2
14 -12 27 -26 32 -19 7 -25 4 -34 -16z m51 -19 c-1 -17 -2 -17 -6 -3 -2 9 -11
17 -20 17 -11 0 -14 -6 -10 -21 4 -15 3 -19 -5 -11 -5 5 -7 19 -4 30 9 27 46
18 45 -12z"/>
<path d="M1247 1755 c-12 -12 -13 -22 -4 -50 11 -38 22 -42 62 -23 25 11 29
25 19 66 -7 26 -54 31 -77 7z"/>
<path d="M1098 1737 c7 -8 26 -20 41 -27 35 -14 50 -60 20 -60 -11 0 -19 -4
-19 -9 0 -5 -14 -23 -31 -40 -17 -17 -26 -31 -21 -31 5 0 15 6 21 14 6 7 34
16 62 20 54 7 52 5 31 66 -3 9 5 6 21 -9 26 -24 26 -36 -1 -78 -9 -15 -32 -26
-67 -34 -52 -12 -55 -11 -74 12 -11 13 -23 33 -27 44 -9 29 -55 75 -74 75 -30
0 -41 -46 -35 -144 7 -87 6 -92 -16 -105 -20 -12 -24 -11 -34 3 -7 9 -20 16
-29 16 -10 0 -16 8 -16 24 0 33 -25 53 -45 36 -25 -20 -15 -55 15 -55 23 0 28
-10 68 -125 28 -83 41 -110 37 -80 -4 25 -9 54 -12 65 -5 17 -4 18 9 7 9 -7
23 -10 31 -6 14 5 17 -8 19 -102 l3 -108 33 -19 c18 -10 40 -16 49 -13 14 6
13 10 -7 31 -24 26 -22 28 22 25 33 -2 45 16 16 23 -20 6 -21 10 -15 89 4 46
7 98 7 116 0 23 5 32 16 32 14 0 15 7 10 45 -7 43 -6 45 26 65 18 11 47 20 64
20 30 0 31 -2 38 -52 3 -29 6 -69 6 -89 0 -20 6 -52 14 -71 8 -19 18 -57 22
-85 6 -48 4 -52 -20 -68 -25 -16 -25 -18 -9 -31 16 -12 15 -13 -12 -14 -55 0
-61 12 -37 71 25 58 24 73 -2 34 -21 -32 -36 -32 -36 1 0 17 6 28 20 31 21 6
28 41 11 59 -14 13 -1 64 16 64 12 0 12 2 -1 16 -17 16 -19 25 -17 61 3 26 -9
34 -36 27 -16 -5 -21 -14 -21 -42 0 -37 -12 -100 -27 -136 -7 -15 -5 -17 14
-11 28 9 37 -16 24 -67 -8 -31 -8 -40 5 -47 23 -13 -14 -71 -45 -71 -16 0 -23
-6 -23 -20 0 -13 7 -20 20 -20 21 0 22 -5 21 -97 0 -42 3 -51 14 -46 8 3 15
10 15 15 0 16 63 83 74 80 5 -2 12 2 16 9 10 16 24 5 45 -33 9 -18 23 -44 30
-58 15 -27 6 -40 -27 -40 -13 0 -18 8 -18 25 0 14 -4 25 -10 25 -5 0 -10 11
-10 25 0 16 -6 25 -15 25 -9 0 -15 -9 -15 -25 0 -14 -4 -25 -9 -25 -5 0 -11
-12 -13 -27 -2 -20 -9 -29 -26 -31 -23 -4 -23 -4 7 -33 36 -34 72 -32 108 7
l22 24 18 -23 c16 -21 21 -22 46 -12 16 7 32 17 36 23 11 18 49 2 54 -22 l4
-21 2 22 c1 17 7 21 29 20 l27 -2 3 76 c2 59 -1 79 -13 89 -8 7 -15 21 -15 32
0 13 -6 18 -17 16 -12 -3 -17 -12 -16 -26 4 -32 -25 -28 -38 5 -8 22 -7 30 5
39 24 17 19 34 -9 34 -32 0 -34 30 -2 31 l22 0 -23 11 c-23 12 -32 36 -29 78
1 16 -4 26 -16 28 -13 3 -17 -3 -18 -25 0 -15 -2 -53 -5 -85 -5 -45 -10 -57
-26 -61 -24 -7 -18 -33 6 -29 16 3 16 1 1 -28 -17 -33 -13 -50 11 -50 10 0 13
6 9 19 -3 10 1 24 10 31 14 11 20 8 45 -21 35 -41 41 -84 10 -74 -16 5 -20 2
-20 -19 0 -31 -29 -36 -37 -6 -3 11 -12 20 -19 20 -8 0 -21 18 -30 40 -9 22
-24 55 -33 74 -17 33 -17 33 10 52 28 19 30 34 14 161 -3 26 1 32 19 37 21 5
23 14 34 143 17 192 17 198 -13 211 -21 10 -27 8 -44 -13 -10 -14 -23 -25 -29
-25 -17 0 -67 71 -64 91 2 12 -3 19 -12 19 -9 0 -16 -7 -16 -15 0 -21 -19 -19
-60 6 -21 13 -30 15 -22 6z m-148 -354 c0 -7 5 -13 10 -13 6 0 10 -7 10 -16 0
-8 -4 -12 -10 -9 -5 3 -10 0 -10 -7 0 -7 -9 2 -20 20 -24 40 -24 38 0 38 11 0
20 -6 20 -13z m213 -379 c-10 -19 -19 -31 -21 -26 -4 14 16 62 28 62 5 0 2
-16 -7 -36z"/>
<path d="M1410 1706 c0 -13 -7 -29 -15 -36 -8 -7 -12 -17 -8 -23 12 -20 41
-160 36 -174 -3 -7 0 -13 7 -13 6 0 14 8 17 18 4 17 8 16 36 -11 20 -18 33
-25 35 -17 3 7 -1 16 -8 20 -7 4 -14 32 -15 63 -2 47 0 56 16 60 27 7 24 17
-20 65 -21 23 -42 49 -45 57 -9 24 -36 18 -36 -9z"/>
<path d="M1750 1669 c0 -7 -11 -9 -27 -6 -26 5 -26 4 -8 -9 10 -8 25 -14 32
-14 8 0 13 -12 13 -28 0 -16 7 -37 15 -48 15 -18 15 -18 9 9 -5 23 -4 26 12
20 16 -6 16 -3 -4 21 -12 16 -22 37 -22 47 0 11 -4 19 -10 19 -5 0 -10 -5 -10
-11z"/>
<path d="M1052 1631 c12 -22 25 -38 27 -35 7 7 -30 74 -41 74 -5 0 2 -18 14
-39z"/>
<path d="M2981 1284 c-12 -15 -21 -30 -21 -35 0 -4 -21 -6 -48 -2 -59 7 -113
-14 -139 -53 -25 -38 -22 -107 6 -144 l21 -30 -36 -52 c-20 -29 -46 -66 -57
-82 l-20 -29 -19 23 c-10 12 -18 35 -18 50 0 25 4 29 33 32 27 3 33 7 35 32 9
78 -103 54 -123 -27 -10 -40 2 -92 31 -126 l25 -30 -25 -37 c-14 -21 -23 -41
-20 -46 10 -16 31 -8 53 22 18 25 25 29 41 20 24 -13 26 -33 5 -50 -18 -15
-20 -60 -2 -60 6 0 22 16 34 34 22 34 24 34 75 30 43 -4 60 -1 92 18 75 44 97
134 51 202 -14 20 -25 39 -25 41 0 3 21 34 47 70 43 60 49 64 60 49 15 -21 17
-44 4 -44 -5 0 -17 -7 -25 -16 -24 -23 -4 -54 35 -54 22 0 32 6 39 26 15 37
12 79 -6 118 -16 33 -16 35 5 64 11 17 21 35 21 41 0 21 -29 11 -52 -19 -22
-29 -25 -29 -46 -14 l-23 16 21 34 c11 20 20 39 20 45 0 18 -29 8 -49 -17z
m-71 -94 c0 -6 -15 -33 -33 -60 -26 -38 -36 -47 -45 -38 -33 33 10 104 66 107
6 1 12 -4 12 -9z m70 -29 l24 -19 -44 -66 c-25 -36 -48 -66 -51 -66 -3 0 -16
11 -28 24 l-22 24 43 60 c24 34 45 61 48 61 3 0 16 -8 30 -18z m-134 -192 l23
-22 -51 -73 c-29 -41 -54 -74 -57 -74 -3 1 -16 9 -29 20 l-24 19 52 76 c29 41
55 75 58 75 3 0 16 -10 28 -21z m69 -89 c7 -24 -19 -76 -44 -90 -26 -13 -71
-13 -71 1 0 6 19 37 41 70 43 61 59 65 74 19z"/>
<path d="M1577 1064 c-4 -4 -7 -21 -7 -39 0 -17 -7 -40 -15 -51 -15 -20 -20
-56 -8 -68 4 -4 15 3 24 15 l17 22 6 -31 c4 -17 3 -39 -3 -50 -5 -10 -13 -43
-16 -73 -10 -80 -14 -89 -30 -59 -8 14 -14 37 -15 53 0 25 -3 27 -42 27 -54 0
-68 -9 -71 -46 -2 -25 1 -29 23 -27 55 6 70 13 71 36 0 14 5 9 13 -18 10 -33
10 -44 -2 -63 -11 -17 -18 -20 -28 -11 -8 6 -25 8 -39 5 -29 -7 -25 -14 32
-54 31 -22 48 -28 40 -14 -6 10 10 52 21 52 4 0 7 -17 6 -37 l-3 -38 7 34 c8
40 48 63 59 33 3 -9 7 -20 9 -23 2 -3 -6 -16 -17 -28 -28 -30 -15 -45 22 -25
19 9 29 21 25 29 -16 43 -17 88 -1 141 19 65 35 59 35 -13 0 -23 5 -45 10 -48
13 -8 4 -43 -17 -67 -13 -14 -13 -17 0 -25 19 -11 32 -53 17 -53 -6 0 -9 -4
-6 -9 3 -5 34 -12 68 -16 35 -3 75 -8 91 -11 21 -5 27 -2 27 13 0 15 -2 16
-10 3 -8 -13 -10 -13 -10 1 0 9 6 19 14 22 9 4 12 14 9 29 -6 22 -5 22 20 -5
15 -15 27 -37 27 -48 0 -25 29 -25 38 2 8 20 8 20 21 -5 13 -24 51 -43 51 -25
0 5 -6 9 -12 9 -9 0 -9 3 1 9 12 8 12 12 -2 26 -10 9 -17 23 -17 30 0 29 19
23 63 -21 36 -35 52 -45 73 -42 24 3 30 11 48 64 12 33 31 73 43 88 12 15 25
36 28 47 4 12 15 19 32 19 25 0 25 -2 20 -43 -4 -25 -2 -48 4 -54 6 -6 6 -19
-1 -38 -14 -36 -4 -65 23 -65 16 0 18 3 9 12 -16 16 -15 60 3 84 8 10 15 40
15 67 0 42 3 49 27 58 52 19 56 9 50 -109 -5 -100 -4 -104 9 -67 7 22 14 42
14 44 0 2 10 -3 23 -11 24 -15 77 -13 77 3 0 6 -12 8 -27 5 -23 -5 -30 -2 -40
21 -18 37 -16 49 9 105 22 49 35 57 56 36 15 -15 42 7 42 34 0 30 -30 35 -51
7 -20 -27 -39 -18 -21 11 17 27 15 37 -8 43 -24 6 -38 -12 -19 -24 7 -4 10
-12 5 -16 -12 -12 -36 27 -36 59 0 80 -64 141 -121 117 -37 -15 -69 -58 -76
-103 -4 -28 -1 -39 21 -61 22 -22 33 -26 59 -21 36 7 42 13 51 43 5 15 1 28
-14 43 -24 24 -40 19 -33 -10 4 -15 0 -20 -15 -20 -45 0 -49 65 -5 76 30 8 72
-20 92 -62 26 -55 56 -94 74 -94 16 0 16 -2 2 -30 -9 -17 -18 -30 -21 -30 -3
0 -2 5 2 11 5 9 -1 10 -20 5 -23 -6 -26 -3 -26 19 l0 25 -20 -20 c-19 -19 -87
-30 -76 -12 7 12 -10 35 -22 28 -6 -3 -8 -15 -5 -27 5 -17 2 -20 -13 -17 -13
2 -19 12 -19 31 1 37 -6 34 -34 -16 -37 -64 -124 -176 -139 -176 -7 -1 -15 7
-19 17 -3 9 -15 25 -27 35 -19 15 -19 18 -5 27 24 14 13 60 -15 60 -37 0 -50
-15 -42 -50 5 -26 1 -40 -19 -66 -31 -40 -39 -42 -60 -10 -15 23 -14 27 12 78
15 29 31 54 36 56 4 2 13 10 21 17 7 8 18 10 26 5 7 -4 19 -6 27 -3 14 6 49
71 41 79 -9 9 -38 -8 -38 -22 0 -8 -4 -14 -10 -14 -5 0 -10 8 -10 18 0 11 -9
27 -19 37 -11 9 -21 33 -23 54 -4 50 -32 50 -36 -1 -2 -23 -8 -38 -16 -38 -7
0 -17 -10 -22 -21 -10 -21 -11 -21 -28 -4 -18 18 -18 48 -1 88 6 14 2 17 -27
17 -22 0 -37 6 -46 20 -7 11 -17 20 -22 20 -6 0 -18 -9 -27 -20 -10 -11 -30
-20 -45 -20 -39 0 -43 -16 -8 -36 16 -10 30 -21 31 -24 6 -38 4 -58 -7 -74
-13 -20 -10 -62 7 -81 5 -5 9 -23 10 -40 0 -23 2 -26 8 -11 4 10 6 31 5 47 -1
16 2 29 7 29 13 0 57 -47 64 -70 4 -12 9 -19 13 -16 7 8 -19 86 -30 86 -13 0
-9 44 7 83 19 47 32 54 30 16 -1 -23 5 -36 27 -52 34 -25 34 -34 7 -87 -12
-22 -21 -56 -22 -75 -1 -19 -6 -35 -12 -35 -6 0 -16 -14 -23 -32 -11 -31 -12
-31 -32 -13 -19 17 -21 17 -38 2 -10 -10 -26 -17 -35 -17 -19 0 -22 43 -8 115
5 26 3 54 -6 79 -7 21 -13 54 -13 73 0 30 -2 34 -15 23 -13 -11 -15 -4 -15 57
0 61 -3 72 -24 92 -14 13 -26 35 -28 50 -3 26 -35 41 -51 25z m191 -142 c2 -7
-2 -10 -12 -6 -9 3 -16 11 -16 16 0 13 23 5 28 -10z m87 -2 c-3 -5 -13 -10
-21 -10 -8 0 -12 5 -9 10 3 6 13 10 21 10 8 0 12 -4 9 -10z"/>
<path d="M2150 1009 c0 -6 -13 -22 -30 -36 -20 -17 -30 -34 -30 -53 0 -20 9
-35 30 -50 26 -18 30 -28 30 -65 0 -44 -1 -44 -26 -35 -33 13 -34 13 -34 -5 0
-9 12 -18 29 -21 18 -4 32 -15 36 -28 l8 -21 4 23 c2 12 10 22 17 22 21 0 56
40 56 64 0 23 -37 66 -58 66 -8 0 -12 17 -12 46 0 44 1 46 25 41 20 -3 25 -1
23 12 -2 9 -13 17 -26 19 -12 2 -22 10 -22 18 0 8 -4 14 -10 14 -5 0 -10 -5
-10 -11z m-2 -101 l-3 -23 -13 23 c-11 19 -11 26 0 39 12 15 13 15 16 0 2 -9
2 -27 0 -39z m50 -106 c-5 -41 -28 -39 -28 2 0 28 3 34 16 29 9 -3 14 -15 12
-31z"/>
<path d="M1390 686 c0 -2 7 -7 16 -10 8 -3 12 -2 9 4 -6 10 -25 14 -25 6z"/>
</g>
</svg>
